<?xml version="1.0" encoding="UTF-8"?>
<svg xmlns="http://www.w3.org/2000/svg" xmlns:xlink="http://www.w3.org/1999/xlink" width="49pt" height="35pt" viewBox="0 0 49 35" version="1.1">
<g id="surface1">
<path style=" stroke:none;fill-rule:nonzero;fill:rgb(100%,100%,0%);fill-opacity:1;" d="M 38.191406 14.535156 L 29.269531 21.046875 L 32.6875 31.613281 L 23.800781 25.054688 L 14.90625 31.605469 L 18.335938 21.042969 L 9.421875 14.523438 L 20.425781 14.550781 L 23.808594 3.972656 L 27.183594 14.554688 Z M 38.191406 14.535156 "/>
<path style=" stroke:none;fill-rule:nonzero;fill:rgb(94.509804%,81.568627%,3.529412%);fill-opacity:1;" d="M 23.808594 3.972656 L 20.425781 14.550781 L 23.792969 19.285156 Z M 23.792969 19.285156 L 38.191406 14.535156 L 27.183594 14.554688 Z M 9.417969 14.523438 L 18.335938 21.042969 L 23.792969 19.28125 Z M 23.785156 19.285156 C 23.785156 19.285156 14.90625 31.605469 14.90625 31.605469 L 23.800781 25.054688 Z M 23.78125 19.277344 C 23.78125 19.277344 32.6875 31.613281 32.6875 31.613281 L 29.269531 21.046875 Z M 23.78125 19.277344 "/>
</g>
</svg>
